<mxfile host="app.diagrams.net" modified="2020-05-25T22:25:13.199Z" agent="5.0 (Windows NT 10.0; Win64; x64) AppleWebKit/537.36 (KHTML, like Gecko) Chrome/72.0.3626.96 Safari/537.36" etag="MdlnOGlI_czq8dO3k4S-" version="13.1.3" type="github">
  <diagram id="pc0hwXwxYjW5At6fqMWj" name="Page-1">
    <mxGraphModel dx="554" dy="539" grid="1" gridSize="10" guides="1" tooltips="1" connect="1" arrows="1" fold="1" page="1" pageScale="1" pageWidth="827" pageHeight="1169" math="0" shadow="0">
      <root>
        <mxCell id="0" />
        <mxCell id="1" parent="0" />
        <mxCell id="T5iWA2etSwhb_KGv9-Ih-1" value="引入JAR包&lt;br style=&quot;font-size: 16px;&quot;&gt;spring-boot-starter_data-redis&lt;br style=&quot;font-size: 16px;&quot;&gt;spring-session-data-redis" style="rounded=0;whiteSpace=wrap;html=1;fontSize=16;align=left;" vertex="1" parent="1">
          <mxGeometry x="40" y="120" width="240" height="60" as="geometry" />
        </mxCell>
        <mxCell id="T5iWA2etSwhb_KGv9-Ih-3" value="@Component&lt;br&gt;@EnableRedisHttpSession(maxInactiveIntervalInSeconds=36-00)&lt;br&gt;public class RedisConfig" style="rounded=0;whiteSpace=wrap;html=1;fontSize=16;align=left;" vertex="1" parent="1">
          <mxGeometry x="40" y="220" width="560" height="60" as="geometry" />
        </mxCell>
        <mxCell id="T5iWA2etSwhb_KGv9-Ih-4" value="application.yam&lt;br&gt;配置redis访问连接&lt;br&gt;配置jedis连接池" style="rounded=0;whiteSpace=wrap;html=1;fontSize=16;align=left;" vertex="1" parent="1">
          <mxGeometry x="40" y="320" width="280" height="60" as="geometry" />
        </mxCell>
        <mxCell id="T5iWA2etSwhb_KGv9-Ih-5" value="基于cookie传输sessionId：java tomcat容器session&lt;br&gt;基于token传输类似sessionId：java代码session" style="rounded=0;whiteSpace=wrap;html=1;fontSize=16;align=left;" vertex="1" parent="1">
          <mxGeometry x="40" y="20" width="410" height="60" as="geometry" />
        </mxCell>
        <mxCell id="T5iWA2etSwhb_KGv9-Ih-6" value="reids单机部署" style="rounded=0;whiteSpace=wrap;html=1;fontSize=16;align=left;" vertex="1" parent="1">
          <mxGeometry x="40" y="520" width="120" height="60" as="geometry" />
        </mxCell>
        <mxCell id="T5iWA2etSwhb_KGv9-Ih-7" value="reids哨兵模式部署" style="rounded=0;whiteSpace=wrap;html=1;fontSize=16;align=left;" vertex="1" parent="1">
          <mxGeometry x="200" y="520" width="160" height="60" as="geometry" />
        </mxCell>
        <mxCell id="T5iWA2etSwhb_KGv9-Ih-8" value="reids集群cluster模式部署" style="rounded=0;whiteSpace=wrap;html=1;fontSize=16;align=left;" vertex="1" parent="1">
          <mxGeometry x="400" y="520" width="200" height="60" as="geometry" />
        </mxCell>
        <mxCell id="T5iWA2etSwhb_KGv9-Ih-10" value="缓存数据设置过期时间就是为了简单应对数据更新，不然处理数据更新问题很复杂" style="rounded=0;whiteSpace=wrap;html=1;fontSize=16;align=left;" vertex="1" parent="1">
          <mxGeometry x="40" y="600" width="300" height="60" as="geometry" />
        </mxCell>
      </root>
    </mxGraphModel>
  </diagram>
</mxfile>
